# AST/ASF file generated using VICON BodyLanguage
# -----------------------------------------------
:version 1.10
:name VICON
:units
  mass 1.0
  length 0.45
  angle deg
:documentation
   .ast/.asf automatically generated from VICON data using
   VICON BodyBuilder and BodyLanguage model FoxedUp or BRILLIANT.MOD
:root
   order TX TY TZ RX RY RZ
   axis XYZ
   position 0 0 0  
   orientation 0 0 0 
:bonedata
  begin
     id 1 
     name lhipjoint
     direction 0.624716 -0.669793 0.401383 
     length 2.38238 
     axis 0 0 0  XYZ
  end
  begin
     id 2 
     name lfemur
     direction 0.34202 -0.939693 0  
     length 6.4574  
     axis 0 0 20  XYZ
    dof rx ry rz
    limits (-160.0 20.0)
           (-70.0 70.0)
           (-60.0 70.0)
  end
  begin
     id 3 
     name ltibia
     direction 0.34202 -0.939693 0   
     length 7.68739   
     axis 0 0 20   XYZ
    dof rx
    limits (-10.0 170.0)
  end
  begin
     id 4 
     name lfoot
     direction 0.0681309 -0.187188 0.979959   
     length 2.46615   
     axis -90 7.62852e-016 20   XYZ
    dof rx rz
    limits (-45.0 90.0)
           (-70.0 20.0)
  end
  begin
     id 5 
     name ltoes
     direction 1.53566e-011 -4.21819e-011 1   
     length 1.2376   
     axis -90 7.62852e-016 20   XYZ
    dof rx
    limits (-90.0 20.0)
  end
  begin
     id 6 
     name rhipjoint
     direction -0.644473 -0.655875 0.393043   
     length 2.43293  
     axis 0 0 0  XYZ 
  end
  begin
     id 7 
     name rfemur
     direction -0.34202 -0.939693 0   
     length 6.7025   
     axis 0 0 -20   XYZ
    dof rx ry rz
    limits (-160.0 20.0)
           (-70.0 70.0)
           (-70.0 60.0)
  end
  begin
     id 8 
     name rtibia
     direction -0.34202 -0.939693 0   
     length 7.80547   
     axis 0 0 -20   XYZ
    dof rx
    limits (-10.0 170.0)
 end
 begin
     id 9 
     name rfoot
     direction -0.0756734 -0.207911 0.975216   
     length 2.40315  
     axis -90 -7.62852e-016 -20   XYZ
    dof rx rz
    limits (-45.0 90.0)
           (-20.0 70.0)
  end
  begin
     id 10 
     name rtoes
     direction -1.5353e-011 -4.21879e-011 1   
     length 1.20477   
     axis -90 -7.62852e-016 -20   XYZ
    dof rx
    limits (-90.0 20.0)
  end
  begin
     id 11 
     name lowerback
     direction 0.0160353 0.987463 -0.157037   
     length 2.18572   
     axis 0 0 0   XYZ
    dof rx ry rz
    limits (-20.0 45.0)
           (-30.0 30.0)
           (-30.0 30.0)
  end
  begin
     id 12 
     name upperback
     direction -0.00499661 0.999756 0.0215076   
     length 2.18016   
     axis 0 0 0   XYZ
    dof rx ry rz
    limits (-20.0 45.0)
           (-30.0 30.0)
           (-30.0 30.0)
  end
  begin
     id 13 
     name thorax
     direction -0.00921346 0.995333 0.0960619   
     length 2.24923   
     axis 0 0 0   XYZ
    dof rx ry rz
    limits (-20.0 45.0)
           (-30.0 30.0)
           (-30.0 30.0)
  end
  begin
     id 14 
     name lowerneck
     direction 0.0274184 0.991181 0.12965   
     length 1.70911   
     axis 0 0 0   XYZ
    dof rx ry rz
    limits (-20.0 45.0)
           (-30.0 30.0)
           (-30.0 30.0)
  end
  begin
     id 15 
     name upperneck
     direction 0.0015627 0.999959 -0.00893559   
     length 1.69312   
     axis 0 0 0   XYZ
    dof rx ry rz
    limits (-20.0 45.0)
           (-30.0 30.0)
           (-30.0 30.0)
  end
  begin
     id 16
     name head
     direction -0.00230242 0.999856 -0.0168327  
     length 1.80241  
     axis 0 0 0   XYZ
    dof rx ry rz
    limits (-20.0 45.0)
           (-30.0 30.0)
           (-30.0 30.0)
  end
  begin
     id 17 
     name lclavicle
     direction 0.955523 0.290741 -0.0494489  
     length 3.84275  
     axis 0 0 0   XYZ
    dof ry rz
    limits (-20.0 10.0)
           (0.0 20.0)
  end
  begin
     id 18 
     name lhumerus
     direction 1 -4.48967e-011 -3.18382e-028   
     length 5.17714   
     axis 180 -30 -90   XYZ
    dof rx ry rz
    limits (-60.0 90.0)
           (-90.0 90.0)
           (-90.0 90.0)
  end
  begin
     id 19
     name lradius
     direction 1 -4.48968e-011 -2.22911e-027   
     length 3.43679   
     axis 180 -30 -90   XYZ
    dof rx
    limits (-10.0 170.0)
  end
  begin
     id 20
     name lwrist
     direction 1 -4.48951e-011 -6.32245e-027   
     length 1.7184   
     axis 3.57107e-015 90 90   XYZ
    dof ry
    limits (-180.0 0.0)
 end
  begin
     id 21 
     name lhand
     direction 1 -4.48924e-011 -1.26431e-026   
     length 0.573117   
     axis 8.06912e-015 90 90   XYZ
    dof rx rz
    limits (-90.0 90.0)
           (-45.0 45.0)
  end
  begin
     id 22 
     name lfingers
     direction 1 -4.49001e-011 -2.52965e-026   
     length 0.462062   
     axis 1.61381e-014 90 90   XYZ
    dof rx
    limits (0.0 90.0)
  end
  begin
     id 23
     name lthumb
     direction 0.707107 -6.35008e-011 0.707107   
     length 0.663431   
     axis -90 45 -1.62303e-014   XYZ
    dof rx rz
    limits (-45.0 45.0)
           (-45.0 45.0)
  end
  begin
     id 24 
     name rclavicle
     direction -0.963917 0.256881 -0.0698287   
     length 3.73057  
     axis 0 0 0   XYZ 
    dof ry rz
    limits (-10.0 20.0)
           (-20.0 0.0)
  end
  begin
     id 25 
     name rhumerus
     direction -1 -4.48962e-011 -2.73982e-027  
     length 5.23908   
     axis 180 30 90   XYZ
    dof rx ry rz
    limits (-90.0 60.0)
           (-90.0 90.0)
           (-90.0 90.0)
  end
  begin
     id 26 
     name rradius
     direction -1 -4.48968e-011 -4.33218e-027   
     length 3.46485   
     axis 180 30 90   XYZ
    dof rx
    limits (-10.0 170.0)
  end
  begin
     id 27 
     name rwrist
     direction -1 -4.48989e-011 -6.32372e-027   
     length 1.73243   
     axis 3.57107e-015 -90 -90   XYZ
    dof ry
    limits (-180.0 0.0)
  end
  begin
     id 28
     name rhand
     direction -1 -4.48948e-011 -1.26448e-026   
     length 0.608752   
     axis 8.06912e-015 -90 -90   XYZ
    dof rx rz
    limits (-90.0 90.0)
           (-45.0 45.0)
  end
  begin
     id 29
     name rfingers
     direction -1 -4.48962e-011 -2.52913e-026   
     length 0.490792   
     axis 1.61381e-014 -90 -90   XYZ
    dof rx
    limits (0.0 90.0)
  end
  begin
     id 30
     name rthumb
     direction -0.707107 -6.34878e-011 0.707107   
     length 0.704682   
     axis -90 -45 1.62303e-014   XYZ
    dof rx rz
    limits (-45.0 45.0)
           (-45.0 45.0)
  end
:hierarchy
  begin
    root lhipjoint rhipjoint lowerback
    lhipjoint lfemur
    lfemur ltibia
    ltibia lfoot
    lfoot ltoes
    rhipjoint rfemur
    rfemur rtibia
    rtibia rfoot
    rfoot rtoes
    lowerback upperback
    upperback thorax
    thorax lowerneck lclavicle rclavicle
    lowerneck upperneck
    upperneck head
    lclavicle lhumerus
    lhumerus lradius
    lradius lwrist
    lwrist lhand lthumb
    lhand lfingers
    rclavicle rhumerus
    rhumerus rradius
    rradius rwrist
    rwrist rhand rthumb
    rhand rfingers
  end

#!OML:ASF G:\JayActor3\Patient Classification 1\Patient 1\Session 6\male.ASF
:FULLY-SPECIFIED
:DEGREES
1079
root 1.58672 15.6429 0.0363154 42.3848 -70.4958 -32.1358
lowerback 29.0373 -2.52948 -4.7857
upperback 5.82861 -5.17078 -1.12268
thorax -9.11058 -2.48179 3.35144
lowerneck -1.31745 -3.47868 4.39436
upperneck 9.04284 -4.79898 -1.41812
head 2.97892 -2.31157 -1.35646
rclavicle -2.22639e-014 5.08889e-014
rhumerus -36.2332 14.0681 -89.5913
rradius 125.604
rwrist 12.6198
rhand 15.214 -20.5352
rfingers 7.12502
rthumb 40.0531 -45.7452
lclavicle -2.22639e-014 5.08889e-014
lhumerus -43.7304 -3.67771 89.149
lradius 128.509
lwrist 2.29999
lhand 1.08114 41.4129
lfingers 7.12502
lthumb 26.6255 69.5607
rfemur -46.9608 -0.833779 28.941
rtibia 51.8456
rfoot -12.9894 -0.431407
rtoes 4.35664
lfemur -43.1835 30.1867 -17.0872
ltibia 57.3249
lfoot -26.2674 15.9884
ltoes -1.98815
1080
root 1.58104 15.6411 0.0322746 42.3273 -70.4845 -32.0638
lowerback 29.0376 -2.52874 -4.79873
upperback 5.83175 -5.17381 -1.12479
thorax -9.10594 -2.48316 3.35738
lowerneck -1.29586 -3.48168 4.38544
upperneck 9.01798 -4.80138 -1.41381
head 2.9666 -2.31314 -1.35238
rclavicle 2.70347e-014 3.49861e-014
rhumerus -36.2189 14.0808 -89.5923
rradius 125.601
rwrist 12.6162
rhand 15.2333 -20.5414
rfingers 7.12502
rthumb 40.0712 -45.746
lclavicle 2.70347e-014 3.49861e-014
lhumerus -43.7238 -3.67379 89.1345
lradius 128.517
lwrist 2.30428
lhand 1.07388 41.4304
lfingers 7.12502
lthumb 26.6186 69.5793
rfemur -46.988 -0.837854 28.946
rtibia 51.9019
rfoot -13.0307 -0.435475
rtoes 4.37347
lfemur -43.2011 30.1543 -17.0746
ltibia 57.3616
lfoot -26.2664 15.9988
ltoes -1.99883
1081
root 1.57545 15.6391 0.0284529 42.274 -70.4733 -31.997
lowerback 29.041 -2.52688 -4.80521
upperback 5.83438 -5.1737 -1.1268
thorax -9.10423 -2.48309 3.35887
lowerneck -1.27833 -3.48893 4.37533
upperneck 8.99224 -4.80965 -1.40764
head 2.95462 -2.31756 -1.34772
rclavicle 2.06736e-014 -2.22639e-014
rhumerus -36.2098 14.0818 -89.591
rradius 125.598
rwrist 12.6082
rhand 15.2437 -20.5454
rfingers 7.12502
rthumb 40.081 -45.7469
lclavicle 2.06736e-014 -2.22639e-014
lhumerus -43.705 -3.67389 89.1245
lradius 128.518
lwrist 2.31137
lhand 1.07335 41.4497
lfingers 7.12502
lthumb 26.618 69.5986
rfemur -47.0138 -0.840522 28.9513
rtibia 51.9573
rfoot -13.0743 -0.440855
rtoes 4.38617
lfemur -43.2179 30.1151 -17.058
ltibia 57.402
lfoot -26.276 16.0047
ltoes -1.97872
1082
root 1.57015 15.6372 0.0250789 42.2216 -70.4623 -31.9348
lowerback 29.0476 -2.52478 -4.80506
upperback 5.83754 -5.17163 -1.12924
thorax -9.10434 -2.48223 3.35565
lowerneck -1.26278 -3.49872 4.37093
upperneck 8.96824 -4.82117 -1.40751
head 2.94326 -2.32358 -1.34618
rclavicle -1.90833e-014 3.18055e-015
rhumerus -36.2073 14.0747 -89.5901
rradius 125.598
rwrist 12.5977
rhand 15.2442 -20.5472
rfingers 7.12502
rthumb 40.0814 -45.7486
lclavicle -1.90833e-014 3.18055e-015
lhumerus -43.687 -3.67945 89.1174
lradius 128.518
lwrist 2.31823
lhand 1.07478 41.4628
lfingers 7.12502
lthumb 26.6194 69.6115
rfemur -47.0349 -0.843333 28.9555
rtibia 52.0104
rfoot -13.1178 -0.445163
rtoes 4.3928
lfemur -43.2288 30.069 -17.0378
ltibia 57.4434
lfoot -26.2942 16.0112
ltoes -1.94276
1083
root 1.56516 15.6353 0.0222788 42.1717 -70.4508 -31.8761
lowerback 29.0547 -2.52379 -4.79906
upperback 5.84116 -5.16915 -1.13066
thorax -9.10461 -2.48133 3.35013
lowerneck -1.24984 -3.50991 4.36818
upperneck 8.94762 -4.8344 -1.41222
head 2.93334 -2.33051 -1.34669
rclavicle -1.11319e-014 0
rhumerus -36.2091 14.0653 -89.5884
rradius 125.599
rwrist 12.5867
rhand 15.2351 -20.5466
rfingers 7.12502
rthumb 40.0729 -45.7507
lclavicle -1.11319e-014 0
lhumerus -43.6708 -3.687 89.1156
lradius 128.515
lwrist 2.31783
lhand 1.07284 41.4705
lfingers 7.12502
lthumb 26.6176 69.6196
rfemur -47.0531 -0.848139 28.9585
rtibia 52.0601
rfoot -13.1607 -0.446792
rtoes 4.39725
lfemur -43.2368 30.017 -17.0158
ltibia 57.4839
lfoot -26.3208 16.0123
ltoes -1.87139
1084
root 1.56061 15.6337 0.0200555 42.1077 -70.4391 -31.8051
lowerback 29.0628 -2.52488 -4.78972
upperback 5.84644 -5.16856 -1.13327
thorax -9.10378 -2.48151 3.34203
lowerneck -1.24126 -3.52129 4.3696
upperneck 8.93407 -4.848 -1.42215
head 2.92643 -2.33759 -1.3499
rclavicle 8.5875e-014 -5.725e-014
rhumerus -36.2113 14.0553 -89.5864
rradius 125.601
rwrist 12.5799
rhand 15.2237 -20.5445
rfingers 7.12502
rthumb 40.0621 -45.7518
lclavicle 8.5875e-014 -5.725e-014
lhumerus -43.6544 -3.69716 89.1182
lradius 128.508
lwrist 2.30973
lhand 1.06715 41.4583
lfingers 7.12502
lthumb 26.6121 69.6082
rfemur -47.0689 -0.859215 28.9557
rtibia 52.1077
rfoot -13.2005 -0.446835
rtoes 4.38984
lfemur -43.2396 29.9572 -16.9976
ltibia 57.521
lfoot -26.3534 16.0097
ltoes -1.77613
1085
root 1.55642 15.6322 0.0182982 42.0356 -70.4244 -31.7276
lowerback 29.0732 -2.52949 -4.77616
upperback 5.85234 -5.17128 -1.13567
thorax -9.10343 -2.48333 3.33301
lowerneck -1.23883 -3.53197 4.37291
upperneck 8.93175 -4.86098 -1.43575
head 2.92438 -2.34432 -1.35505
rclavicle -2.06736e-014 -3.18055e-015
rhumerus -36.2129 14.0503 -89.5855
rradius 125.6
rwrist 12.5798
rhand 15.2119 -20.5414
rfingers 7.12502
rthumb 40.0511 -45.752
lclavicle -2.06736e-014 -3.18055e-015
lhumerus -43.6361 -3.70574 89.1246
lradius 128.494
lwrist 2.29348
lhand 1.05496 41.4446
lfingers 7.12502
lthumb 26.6004 69.5963
rfemur -47.0825 -0.878206 28.9521
rtibia 52.1543
rfoot -13.2363 -0.445363
rtoes 4.36415
lfemur -43.2374 29.8868 -16.9789
ltibia 57.5551
lfoot -26.3874 16.0142
ltoes -1.67441
1086
root 1.55244 15.6308 0.0167296 41.9575 -70.4086 -31.6446
lowerback 29.0857 -2.53506 -4.76279
upperback 5.85823 -5.1753 -1.13708
thorax -9.10396 -2.4857 3.32582
lowerneck -1.24748 -3.54187 4.37429
upperneck 8.94351 -4.87372 -1.44862
head 2.92925 -2.35083 -1.36027
rclavicle -1.59028e-015 8.5875e-014
rhumerus -36.2111 14.0485 -89.5828
rradius 125.594
rwrist 12.5893
rhand 15.2081 -20.5416
rfingers 7.12502
rthumb 40.0475 -45.7533
lclavicle -1.59028e-015 8.5875e-014
lhumerus -43.6177 -3.71577 89.1359
lradius 128.477
lwrist 2.27179
lhand 1.039 41.4216
lfingers 7.12502
lthumb 26.5852 69.5756
rfemur -47.0966 -0.899402 28.9465
rtibia 52.2015
rfoot -13.2677 -0.44303
rtoes 4.34167
lfemur -43.2342 29.8118 -16.9626
ltibia 57.5878
lfoot -26.4184 16.0275
ltoes -1.58646
1087
root 1.54826 15.6292 0.0149215 41.8876 -70.3901 -31.5718
lowerback 29.0978 -2.53962 -4.75018
upperback 5.86434 -5.17791 -1.13578
thorax -9.10374 -2.48741 3.32155
lowerneck -1.26431 -3.55127 4.37333
upperneck 8.96668 -4.88661 -1.45777
head 2.93966 -2.35726 -1.36439
rclavicle 1.59028e-015 3.81667e-014
rhumerus -36.2053 14.0473 -89.5774
rradius 125.581
rwrist 12.6066
rhand 15.217 -20.5432
rfingers 7.12502
rthumb 40.0559 -45.7524
lclavicle 1.59028e-015 3.81667e-014
lhumerus -43.5915 -3.7254 89.1507
lradius 128.452
lwrist 2.24644
lhand 1.03272 41.409
lfingers 7.12502
lthumb 26.5792 69.5638
rfemur -47.1091 -0.914498 28.945
rtibia 52.2492
rfoot -13.2977 -0.444256
rtoes 4.32403
lfemur -43.2303 29.7333 -16.9393
ltibia 57.622
lfoot -26.447 16.051
ltoes -1.51796
1088
root 1.54351 15.6272 0.0123503 41.8598 -70.3682 -31.5437
lowerback 29.1053 -2.53948 -4.73863
upperback 5.86983 -5.17387 -1.12828
thorax -9.10176 -2.486 3.32226
lowerneck -1.28412 -3.56005 4.36667
upperneck 8.99733 -4.89953 -1.45763
head 2.95352 -2.36352 -1.36478
rclavicle 2.22639e-014 -1.90833e-014
rhumerus -36.1995 14.0468 -89.5706
rradius 125.563
rwrist 12.6303
rhand 15.2352 -20.5489
rfingers 7.12502
rthumb 40.073 -45.7529
lclavicle 2.22639e-014 -1.90833e-014
lhumerus -43.5688 -3.73932 89.1674
lradius 128.427
lwrist 2.22216
lhand 1.03282 41.4091
lfingers 7.12502
lthumb 26.5793 69.564
rfemur -47.1214 -0.909315 28.9588
rtibia 52.2976
rfoot -13.3264 -0.456433
rtoes 4.31573
lfemur -43.2291 29.6602 -16.8966
ltibia 57.661
lfoot -26.4699 16.0842
ltoes -1.47683
1089
root 1.53818 15.625 0.00925264 41.8707 -70.3435 -31.5568
lowerback 29.1088 -2.53511 -4.7262
upperback 5.87268 -5.16338 -1.11593
thorax -9.10093 -2.48141 3.32552
lowerneck -1.29385 -3.56888 4.35583
upperneck 9.02545 -4.91266 -1.44828
head 2.96494 -2.36978 -1.36111
rclavicle 3.97569e-014 4.77083e-014
rhumerus -36.2007 14.0442 -89.5638
rradius 125.542
rwrist 12.6542
rhand 15.2648 -20.5578
rfingers 7.12502
rthumb 40.1008 -45.7534
lclavicle 3.97569e-014 4.77083e-014
lhumerus -43.5541 -3.75893 89.1855
lradius 128.402
lwrist 2.20065
lhand 1.04169 41.4201
lfingers 7.12502
lthumb 26.5878 69.5737
rfemur -47.1312 -0.885711 28.9855
rtibia 52.3449
rfoot -13.357 -0.475596
rtoes 4.3252
lfemur -43.2293 29.5932 -16.8356
ltibia 57.7046
lfoot -26.4933 16.1172
ltoes -1.43922
1090
root 1.53247 15.6226 0.00593169 41.8942 -70.3201 -31.5852
lowerback 29.109 -2.52752 -4.71925
upperback 5.87419 -5.15003 -1.10186
thorax -9.09951 -2.47532 3.33266
lowerneck -1.29054 -3.57715 4.3459
upperneck 9.0465 -4.92493 -1.43312
head 2.97167 -2.37551 -1.35515
rclavicle -2.54444e-014 1.27222e-014
rhumerus -36.2079 14.0429 -89.558
rradius 125.52
rwrist 12.6744
rhand 15.2924 -20.5655
rfingers 7.12502
rthumb 40.1268 -45.7532
lclavicle -2.54444e-014 1.27222e-014
lhumerus -43.5434 -3.78109 89.2039
lradius 128.379
lwrist 2.18656
lhand 1.0588 41.4362
lfingers 7.12502
lthumb 26.6041 69.5873
rfemur -47.1375 -0.853807 29.016
rtibia 52.3914
rfoot -13.3867 -0.496096
rtoes 4.34306
lfemur -43.2271 29.5327 -16.7687
ltibia 57.7501
lfoot -26.5152 16.1538
ltoes -1.42007
1091
root 1.52671 15.6205 0.00290013 41.9161 -70.2975 -31.6123
lowerback 29.1101 -2.52015 -4.71324
upperback 5.87257 -5.13729 -1.08819
thorax -9.10204 -2.46919 3.34031
lowerneck -1.27491 -3.58517 4.3353
upperneck 9.05963 -4.93666 -1.41209
head 2.97357 -2.38093 -1.34661
rclavicle -1.27222e-014 5.725e-014
rhumerus -36.2239 14.0431 -89.5543
rradius 125.501
rwrist 12.6866
rhand 15.3119 -20.5705
rfingers 7.12502
rthumb 40.1452 -45.7526
lclavicle -1.27222e-014 5.725e-014
lhumerus -43.5348 -3.80266 89.2239
lradius 128.354
lwrist 2.18055
lhand 1.08114 41.461
lfingers 7.12502
lthumb 26.6255 69.6089
rfemur -47.1415 -0.826128 29.0455
rtibia 52.4358
rfoot -13.4148 -0.508532
rtoes 4.37537
lfemur -43.2224 29.4737 -16.7035
ltibia 57.7934
lfoot -26.5341 16.1949
ltoes -1.41736
